<svg width="48" height="48" viewBox="0 0 48 48" fill="none" xmlns="http://www.w3.org/2000/svg">
<rect width="48" height="48" rx="24" fill="#F8D5D5"/>
<path d="M44.3849 22.2457L32.5097 16.1375C32.3343 16.0473 32.1375 16 31.9373 16C31.7372 16 31.5403 16.0473 31.3649 16.1375L19.4898 22.2457C19.3036 22.3416 19.1483 22.4824 19.0402 22.6536C18.932 22.8247 18.875 23.0198 18.875 23.2186C18.875 23.4173 18.932 23.6125 19.0402 23.7836C19.1483 23.9547 19.3036 24.0956 19.4898 24.1914L30.7498 29.9831V41.8874L27.1445 40.0327L25.9997 41.9774L31.3649 44.7372C31.5402 44.8276 31.7371 44.875 31.9373 44.875C32.1375 44.875 32.3344 44.8276 32.5097 44.7372L44.3849 38.629C44.5711 38.5332 44.7265 38.3923 44.8347 38.2212C44.9429 38.0501 45 37.8549 45 37.6561V23.2186C45 23.0198 44.9429 22.8246 44.8347 22.6535C44.7265 22.4824 44.5711 22.3415 44.3849 22.2457ZM31.9373 18.3787L41.3484 23.2186L31.9373 28.0585L22.5262 23.2186L31.9373 18.3787ZM42.625 36.9998L33.1248 41.8863V29.982L42.625 25.0955V36.9998Z" fill="#C4262E"/>
<path d="M21.625 30.575H12V28.375H21.625V30.575ZM24.0312 39.375H14.4062V37.175H24.0312V39.375ZM26.4375 34.975H16.8125V32.775H26.4375V34.975Z" fill="#C4262E"/>
</svg>
